<svg xmlns="http://www.w3.org/2000/svg" width="115" height="60" viewBox="0 0 115 60">
  <title>Sogeti</title>
  <g id="logo-sogeti" fill="none" fill-rule="evenodd">
    <rect width="115" height="60" fill="#FFF"/>
    <path id="Shape" fill="#0070AD" fill-rule="nonzero" d="M93.8971963,3.89719626 L97.1214953,3.36448598 L97.1214953,10.7663551 L105.841121,10.7663551 L105.841121,12.9813084 C105.841121,14.3831776 104.719626,15.5046729 103.317757,15.5046729 L97.1214953,15.5046729 L97.1214953,25.4859813 C97.1214953,27.4485981 97.4299065,28.8785047 98.046729,29.7196262 C98.6635514,30.5607477 99.728972,30.9813084 101.242991,30.9813084 C102.280374,30.9813084 103.17757,30.8691589 103.990654,30.6448598 C104.775701,30.4205607 105.420561,30.2242991 105.897196,30.0280374 L106.485981,32.8317757 C106.71028,33.8691589 106.261682,34.7663551 104.971963,35.2149533 C104.299065,35.4392523 102.728972,35.8598131 100.514019,35.8598131 C98.7757009,35.8598131 97.2897196,35.635514 96.1401869,35.1588785 C94.9626168,34.682243 94.0373832,34.0093458 93.3364486,33.1121495 C92.635514,32.2149533 92.1588785,31.1495327 91.8785047,29.8598131 C91.5981308,28.5981308 91.4579439,27.1401869 91.4579439,25.5140187 L91.4579439,6.75700935 C91.4579439,5.35514019 92.4953271,4.12149533 93.8971963,3.89719626 Z"/>
    <path id="Shape" fill="#FF4019" fill-rule="nonzero" d="M114.392523,3.58878505 C114.392523,4.65420561 114.056075,5.4953271 113.35514,6.11214953 C112.654206,6.72897196 111.841121,7.03738318 110.915888,7.03738318 C109.934579,7.03738318 109.121495,6.72897196 108.420561,6.11214953 C107.719626,5.4953271 107.383178,4.65420561 107.383178,3.58878505 C107.383178,2.4953271 107.719626,1.62616822 108.420561,1.00934579 C109.121495,0.392523364 109.934579,0.0841121495 110.915888,0.0841121495 C111.841121,0.0841121495 112.654206,0.392523364 113.35514,1.03738318 C114.056075,1.68224299 114.392523,2.4953271 114.392523,3.58878505 Z"/>
    <path id="Shape" fill="#0070AD" fill-rule="nonzero" d="M113.915888 35.2990654L112.317757 35.2990654C110.046729 35.2990654 108.224299 33.4766355 108.224299 31.2056075L108.224299 10.7663551 110.158879 10.7663551C112.233645 10.7663551 113.915888 12.4485981 113.915888 14.5233645L113.915888 35.2990654zM67.0093458 23.1869159C67.0093458 21.0280374 67.317757 19.1495327 67.9626168 17.5233645 68.6074766 15.8971963 69.4485981 14.5514019 70.5140187 13.4859813 71.5794393 12.4205607 72.7850467 11.6074766 74.1588785 11.046729 75.5327103 10.5140187 76.9345794 10.2336449 78.364486 10.2336449 81.728972 10.2336449 84.364486 11.271028 86.2429907 13.3738318 88.1214953 15.4766355 89.0747664 18.588785 89.0747664 22.7383178 89.0747664 23.046729 89.0747664 23.411215 89.046729 23.8037383 89.0186916 24.1962617 89.0186916 24.5327103 88.9906542 24.8691589L72.8691589 24.8691589C73.0373832 26.8317757 73.7102804 28.3457944 74.9439252 29.4392523 76.1775701 30.5046729 77.9719626 31.0654206 80.2990654 31.0654206 81.6728972 31.0654206 82.9345794 30.953271 84.0560748 30.7009346 84.3364486 30.6448598 84.6168224 30.588785 84.8691589 30.5046729 85.9065421 30.2523364 86.9158879 30.953271 87.0841121 31.9906542L87.5046729 34.5420561C87.1962617 34.7102804 86.7757009 34.8504673 86.2149533 35.0186916 85.682243 35.1869159 85.0373832 35.3551402 84.3364486 35.4953271 83.635514 35.635514 82.8785047 35.7476636 82.0654206 35.8317757 81.2523364 35.9158879 80.4392523 35.9719626 79.5981308 35.9719626 77.4392523 35.9719626 75.588785 35.6635514 73.9906542 35.0186916 72.3925234 34.3738318 71.1028037 33.5046729 70.0654206 32.3551402 69.0280374 31.2056075 68.271028 29.8878505 67.7663551 28.3457944 67.2616822 26.7196262 67.0093458 25.0373832 67.0093458 23.1869159zM83.4392523 20.6635514C83.4392523 19.8785047 83.3271028 19.1495327 83.1028037 18.4485981 82.8785047 17.7476636 82.5700935 17.1308411 82.1495327 16.6261682 81.728972 16.1214953 81.2242991 15.7009346 80.6074766 15.4205607 79.9906542 15.1121495 79.2616822 14.9719626 78.4205607 14.9719626 77.5514019 14.9719626 76.7943925 15.1401869 76.1214953 15.4766355 75.4766355 15.8130841 74.9158879 16.2336449 74.4672897 16.7663551 74.0186916 17.2990654 73.6542056 17.9158879 73.4018692 18.588785 73.1495327 19.2616822 72.9813084 19.9626168 72.8971963 20.6915888L83.4392523 20.6635514zM42.728972 22.9906542C42.728972 24.9252336 42.4485981 26.6915888 41.9158879 28.2897196 41.3831776 29.8878505 40.5981308 31.2336449 39.588785 32.3831776 38.5794393 33.5046729 37.4018692 34.3738318 35.9719626 35.0186916 34.5700935 35.635514 33.0280374 35.9439252 31.317757 35.9439252 29.6074766 35.9439252 28.0934579 35.635514 26.6915888 35.0186916 25.2897196 34.4018692 24.1121495 33.5046729 23.1028037 32.3831776 22.0934579 31.2616822 21.3364486 29.8878505 20.7757009 28.2897196 20.2149533 26.6915888 19.9345794 24.9252336 19.9345794 22.9906542 19.9345794 21.0560748 20.2149533 19.2897196 20.7757009 17.7196262 21.3364486 16.1495327 22.1214953 14.7757009 23.1308411 13.6542056 24.1401869 12.5327103 25.3457944 11.6635514 26.7476636 11.046729 28.1495327 10.4299065 29.6635514 10.1214953 31.317757 10.1214953 32.9719626 10.1214953 34.5140187 10.4299065 35.9158879 11.046729 37.317757 11.6635514 38.5233645 12.5327103 39.5327103 13.6542056 40.5420561 14.7757009 41.2990654 16.1214953 41.8598131 17.7196262 42.4485981 19.2897196 42.728972 21.0560748 42.728972 22.9906542zM37.1214953 22.9906542C37.1214953 20.5514019 36.6168224 18.6168224 35.6074766 17.1869159 34.5981308 15.7570093 33.1682243 15.0560748 31.3738318 15.0560748 29.5514019 15.0560748 28.1495327 15.7570093 27.1401869 17.1869159 26.1308411 18.6168224 25.6261682 20.5514019 25.6261682 22.9906542 25.6261682 25.4579439 26.1308411 27.4205607 27.1401869 28.8504673 28.1495327 30.2803738 29.5794393 31.0093458 31.3738318 31.0093458 33.1962617 31.0093458 34.5981308 30.2803738 35.6074766 28.8504673 36.6168224 27.4205607 37.1214953 25.4579439 37.1214953 22.9906542zM18.3084112 25.9345794C18.0280374 25.1495327 17.5794393 24.4485981 16.9626168 23.8598131 16.3457944 23.2429907 15.588785 22.7102804 14.635514 22.2056075 13.7102804 21.728972 12.5607477 21.2242991 11.2149533 20.7196262 10.4018692 20.4392523 9.70093458 20.1588785 9.14018692 19.9065421 8.57943925 19.6542056 8.13084112 19.3738318 7.76635514 19.1214953 7.42990654 18.8691589 7.17757009 18.5607477 7.03738318 18.2523364 6.89719626 17.9439252 6.81308411 17.5794393 6.81308411 17.1869159 6.81308411 16.3738318 7.17757009 15.7850467 7.90654206 15.3925234 8.63551402 15 9.56074766 14.8037383 10.7102804 14.8037383 11.635514 14.8037383 12.5046729 14.8598131 13.2616822 15 13.2616822 15 13.7383178 15.0841121 13.7383178 15.0841121 15.3925234 15.2803738 16.9345794 14.2429907 17.271028 12.588785L17.5233645 11.3551402C16.4018692 10.9626168 15.3084112 10.7383178 14.5794393 10.5981308 13.5981308 10.4018692 12.1121495 10.2056075 10.4579439 10.2056075 7.59813084 10.2056075 5.35514019 10.8504673 3.70093458 12.1401869 2.04672897 13.4299065 1.20560748 15.2242991 1.20560748 17.4672897 1.20560748 18.6168224 1.37383178 19.5981308 1.73831776 20.411215 2.10280374 21.1962617 2.57943925 21.8971963 3.22429907 22.4579439 3.8411215 23.0186916 4.59813084 23.5233645 5.43925234 23.9439252 6.30841121 24.364486 7.23364486 24.7570093 8.27102804 25.1495327 9.95327103 25.7663551 11.1588785 26.3551402 11.9158879 26.8878505 12.6448598 27.4205607 13.0093458 28.0934579 13.0093458 28.9065421 13.0093458 29.7757009 12.6728972 30.3925234 11.9719626 30.7570093 11.271028 31.1214953 10.1775701 31.2897196 8.69158879 31.2897196 7.12149533 31.2897196 5.91588785 31.1214953 5.1588785 30.9252336 4.54205607 30.7850467 4.14953271 30.6448598 3.61682243 30.6448598 2.1588785 30.6448598.813084112 31.5700935.392523364 33.0280374L.0841121495 34.2056075C.757009346 34.5140187 2.35514019 35.046729 3.44859813 35.3271028 4.62616822 35.635514 6.08411215 35.8878505 8.69158879 35.8878505 11.9158879 35.8878505 14.3831776 35.2990654 16.1214953 34.0934579 17.8598131 32.8878505 18.728972 31.1214953 18.728972 28.7663551 18.728972 27.6728972 18.588785 26.7196262 18.3084112 25.9345794z"/>
    <path id="Shape" fill="#12ABDB" fill-rule="nonzero" d="M111.280374,52.2897196 C112.990654,52.2897196 114.336449,50.8878505 114.364486,49.2056075 C114.252336,48.4766355 114,47.1308411 112.093458,47.1308411 C110.018692,47.1308411 109.345794,50.0186916 107.663551,51.8691589 C107.523364,52.9345794 106.514019,53.8598131 105.280374,54.0280374 C105.588785,54.3364486 106.261682,54.5327103 107.074766,54.5327103 C108.560748,54.5327103 110.35514,54.0841121 111.308411,53.1588785 C110.046729,53.1869159 109.233645,52.3738318 109.149533,51.2523364 C109.794393,52.0093458 110.46729,52.2897196 111.280374,52.2897196 Z"/>
    <path id="Shape" fill="#0070AD" fill-rule="nonzero" d="M114.364486 49.0934579C114.336449 47.1588785 113.411215 45.5327103 111.981308 44.2149533 110.915888 43.2336449 109.626168 42.4766355 108.280374 41.9158879 108.168224 41.8598131 108.056075 41.8317757 107.943925 41.7757009 107.943925 41.7757009 107.943925 41.7757009 107.943925 41.7757009 106.28972 43.7663551 100.570093 45.2242991 100.570093 49.4018692 100.570093 51.0280374 101.607477 52.5420561 103.093458 53.1588785 103.962617 53.4953271 104.831776 53.4953271 105.700935 53.2149533 106.485981 52.9626168 107.102804 52.4859813 107.635514 51.8971963 109.317757 50.046729 109.990654 47.1588785 112.065421 47.1588785 113.943925 47.1588785 114.196262 48.5046729 114.336449 49.2336449 114.364486 49.2056075 114.364486 49.1775701 114.364486 49.0934579zM98.1308411 47.6915888C98.1308411 46.7663551 98.0747664 46.1495327 97.4859813 46.1495327 97.2056075 46.1495327 97.0934579 46.2056075 96.8411215 46.2897196 97.0654206 49.3738318 96.364486 52.1214953 95.4953271 52.1214953 94.3738318 52.1214953 94.9345794 45.4766355 92.5514019 45.4766355 90.364486 45.4766355 90.0560748 50.7757009 89.8037383 50.7757009 89.635514 50.7757009 89.6074766 49.3738318 89.6074766 48.3364486 89.6915888 47.8317757 89.7476636 47.3831776 89.7476636 47.0186916 89.7476636 46.5140187 89.5514019 45.6728972 88.4299065 46.0934579 88.4579439 49.8785047 87.7009346 52.1775701 86.8598131 52.1775701 85.5981308 52.1775701 85.5981308 48.728972 85.5981308 47.8037383 85.5981308 46.8785047 85.6542056 45.6448598 84.2803738 46.0934579 84.0841121 49.4018692 83.2149533 51.8971963 82.6542056 51.8971963 81.8411215 51.8971963 82.0093458 46.1775701 80.2429907 46.1775701 78.6728972 46.1775701 78.1682243 51.588785 77.8317757 51.588785 77.2429907 51.588785 78.0280374 45.5046729 75.728972 45.5046729 74.5233645 45.5046729 74.046729 47.5514019 73.5700935 49.8224299 73.4859813 50.271028 73.3738318 50.271028 73.3738318 49.7663551 73.3738318 49.3457944 73.3457944 48.8971963 73.3738318 48.5046729 73.9626168 46.2056075 73.2336449 45.364486 72.1962617 45.9813084 72.5327103 50.2149533 70.5981308 52.2616822 69.1121495 52.2616822 68.5794393 52.2616822 68.1588785 52.0373832 67.8504673 51.6728972 69.6448598 50.5794393 70.4299065 49.317757 70.4299065 48.1121495 70.4299065 46.7943925 69.6728972 46.0093458 68.411215 46.0093458 66.6448598 46.0093458 65.6635514 47.8317757 65.6635514 49.3738318 65.6635514 50.2149533 65.8317757 50.9158879 66.0841121 51.5046729 65.4672897 51.7850467 64.9065421 52.0373832 64.3738318 52.2897196 64.317757 50.6915888 64.1495327 49.0373832 64.0093458 47.4953271 63.0560748 47.2429907 62.8037383 47.6915888 62.7196262 48.5327103 62.5514019 50.4392523 61.8504673 51.6448598 61.2056075 51.6448598 60.728972 51.6448598 60.4485981 51.0841121 60.4205607 50.4672897 60.2523364 47.411215 62.7196262 46.5420561 64.0373832 46.9906542 64.317757 46.317757 64.0093458 45.8411215 62.8317757 45.8411215 61.4018692 45.8411215 60.3364486 46.7102804 59.5514019 47.8037383 59.0186916 48.5327103 58.4299065 49.0654206 57.6168224 49.7102804 57.6448598 49.5140187 57.6448598 49.3457944 57.6448598 49.1775701 57.6448598 47.0186916 56.4672897 46.0654206 55.3457944 46.0654206 54.4205607 46.0654206 53.8317757 46.6261682 53.4953271 47.4672897 53.411215 46.6261682 53.2429907 46.2336449 52.7383178 46.2336449 52.5140187 46.2336449 52.2336449 46.2897196 51.9252336 46.4579439 52.0654206 46.9345794 52.1214953 48 52.1214953 48.6728972 52.1214953 51.2803738 51.364486 52.4299065 50.6635514 52.4299065 49.8504673 52.4299065 49.7102804 49.3457944 49.6542056 48.1401869 49.5420561 48.1121495 49.4299065 48.0560748 49.2616822 48.0560748 48.5327103 48.0560748 48.4205607 49.0373832 48.2523364 49.9626168 48.0560748 50.9719626 47.4672897 52.2616822 46.5981308 52.2616822 46.0654206 52.2616822 45.7570093 51.7570093 45.7009346 50.8598131 45.6168224 49.0093458 47.1308411 46.8504673 49.5420561 47.5233645 49.8504673 46.7943925 49.3738318 46.2336449 48.364486 46.2336449 46.6261682 46.2336449 45.1682243 47.5514019 44.5514019 49.0934579 43.9065421 50.5233645 42.7850467 52.5981308 40.5140187 52.5981308 38.9158879 52.5981308 37.682243 51.1962617 37.682243 48.2523364 37.682243 45.7009346 39.2803738 43.2897196 40.9906542 43.2897196 42.1962617 43.2897196 42.4485981 44.4672897 42.364486 45.5607477 42.9813084 46.0654206 43.9906542 45.588785 43.9906542 44.3551402 43.9906542 43.4859813 43.2897196 42.0560748 41.046729 42.0560748 38.271028 42.0560748 35.8317757 44.8317757 35.8317757 48.4485981 35.8317757 51.9813084 37.6261682 54.0560748 40.1495327 54.0560748 41.7476636 54.0560748 43.2616822 53.1588785 44.2990654 51.4766355 44.5514019 52.9345794 45.5607477 53.5794393 46.317757 53.5794393 47.5233645 53.5794393 48.3364486 52.7943925 48.7570093 51.728972 49.0373832 52.7943925 49.5981308 53.5794393 50.5514019 53.5794393 51.2242991 53.5794393 51.728972 53.2429907 52.1214953 52.7102804 51.953271 56.411215 51.7570093 58.7943925 53.9719626 58.317757 53.635514 57.2523364 53.5233645 55.3457944 53.5233645 53.6074766 53.5233645 48.8971963 54.3084112 47.3271028 55.2897196 47.3271028 55.9906542 47.3271028 56.2149533 48.2242991 56.2149533 49.1775701 56.2149533 49.682243 56.1588785 50.271028 56.046729 50.8317757 54.8411215 51.588785 53.8878505 52.1775701 53.8878505 52.9345794 53.8878505 53.5233645 54.3364486 53.5794393 54.728972 53.5794393 55.6542056 53.5794393 56.7476636 52.682243 57.364486 50.9719626 57.8971963 50.635514 58.4299065 50.271028 58.9626168 49.7663551 58.9345794 49.9345794 58.9345794 50.1028037 58.9345794 50.2990654 58.9345794 51.9813084 59.6635514 53.0186916 60.8691589 53.0186916 61.7943925 53.0186916 62.4953271 52.3738318 62.9719626 51.3925234 63 51.953271 63.0280374 52.4859813 63.0280374 52.9626168 61.1495327 53.8317757 59.0747664 54.7009346 59.0747664 57.1682243 59.0747664 58.4299065 60 59.3831776 61.1775701 59.3831776 63.7850467 59.3831776 64.4018692 56.6074766 64.4018692 53.411215 65.2429907 53.046729 65.8878505 52.7663551 66.6168224 52.4018692 67.2336449 53.1869159 68.1028037 53.5794393 68.8878505 53.5794393 70.3738318 53.5794393 71.4672897 52.7943925 72.364486 51.1962617 72.5327103 52.4018692 72.8411215 53.5794393 73.4859813 53.5794393 74.6635514 53.5794393 74.8878505 47.4672897 75.7570093 47.4672897 76.4299065 47.4672897 75.8691589 54.0841121 77.635514 54.0841121 79.1495327 54.0841121 79.4299065 48.2523364 80.1588785 48.2523364 80.6915888 48.2523364 80.7196262 53.5794393 82.3738318 53.5794393 83.1869159 53.5794393 84.0560748 52.5981308 84.5046729 50.5794393 84.7009346 51.9252336 85.4018692 53.5794393 86.7196262 53.5794393 87.5046729 53.5794393 88.1775701 52.7943925 88.682243 51.7570093 88.8224299 52.8224299 89.1308411 53.5794393 89.7196262 53.5794393 91.2616822 53.5794393 91.2056075 47.4672897 92.411215 47.4672897 93.364486 47.4672897 93.0560748 53.5794393 95.3271028 53.5794393 96.3925234 53.5794393 96.8971963 52.6542056 97.2056075 51.5046729 97.6261682 53.1869159 98.2990654 53.5794393 98.8317757 53.5794393 99.1682243 53.5794393 99.4485981 53.4672897 99.7850467 53.046729 97.9906542 52.2336449 98.1308411 49.4859813 98.1308411 47.6915888zM61.2336449 58.1775701C60.7009346 58.1775701 60.3925234 57.6728972 60.3925234 57.0841121 60.3925234 55.5140187 61.5420561 54.6728972 62.9719626 53.9719626 62.8878505 57.4205607 62.1028037 58.1775701 61.2336449 58.1775701zM68.271028 47.0747664C68.8037383 47.0747664 69.1121495 47.5514019 69.0560748 48.2523364 69 49.0654206 68.411215 50.0186916 67.3738318 50.7476636 66.8130841 49.2336449 67.2056075 47.0747664 68.271028 47.0747664zM84.953271 44.7757009C85.4579439 44.7476636 85.7943925 44.3271028 85.8224299 43.8224299 85.8224299 43.317757 85.4859813 42.8971963 84.9813084 42.9252336 84.4766355 42.953271 84.0560748 43.3738318 84.0560748 43.8785047 84.0560748 44.3831776 84.4766355 44.8037383 84.953271 44.7757009zM97.4579439 45.0280374C97.9065421 45 98.2990654 44.6074766 98.2990654 44.1028037 98.2990654 43.6261682 97.9345794 43.2336449 97.4859813 43.2336449 97.0373832 43.2616822 96.6448598 43.6542056 96.6448598 44.1588785 96.6448598 44.6635514 97.0093458 45.0560748 97.4579439 45.0280374zM13.6542056 47.3271028C14.3831776 47.3271028 14.9439252 47.4672897 15.3084112 47.7196262 15.7009346 47.9719626 15.8971963 48.3925234 15.8971963 48.953271 15.8971963 49.2336449 15.8411215 49.4859813 15.7570093 49.7102804 15.6448598 49.9065421 15.5046729 50.1028037 15.3084112 50.2149533 15.1121495 50.3551402 14.8598131 50.4392523 14.5794393 50.4953271 14.2990654 50.5514019 13.9626168 50.5794393 13.5981308 50.5794393L13.1495327 50.5794393 13.1495327 52.3457944 12.2523364 52.3457944 12.2523364 47.4392523C12.4485981 47.3831776 12.7009346 47.3551402 12.953271 47.3551402 13.2056075 47.3551402 13.4299065 47.3271028 13.6542056 47.3271028zM13.7102804 48.1121495C13.4859813 48.1121495 13.2897196 48.1121495 13.1495327 48.1401869L13.1495327 49.8224299 13.5981308 49.8224299C14.046729 49.8224299 14.3551402 49.7663551 14.6074766 49.6261682 14.8317757 49.5140187 14.9719626 49.2616822 14.9719626 48.9252336 14.9719626 48.7570093 14.9439252 48.6168224 14.8878505 48.5046729 14.8317757 48.3925234 14.7476636 48.3084112 14.635514 48.2523364 14.5233645 48.1962617 14.3831776 48.1401869 14.2429907 48.1121495 14.046729 48.1401869 13.9065421 48.1121495 13.7102804 48.1121495zM17.5514019 48.5046729C17.8317757 48.5046729 18.0841121 48.5327103 18.2803738 48.6168224 18.4766355 48.7009346 18.6448598 48.7850467 18.7570093 48.9252336 18.8691589 49.0654206 18.953271 49.2056075 19.0093458 49.4018692 19.0654206 49.5981308 19.0934579 49.7943925 19.0934579 50.0186916L19.0934579 52.2897196C18.953271 52.317757 18.7570093 52.3457944 18.4766355 52.4018692 18.1962617 52.4299065 17.8878505 52.4579439 17.5514019 52.4579439 17.3271028 52.4579439 17.1308411 52.4299065 16.9345794 52.4018692 16.7383178 52.3457944 16.5981308 52.2897196 16.4579439 52.2056075 16.317757 52.1214953 16.2336449 51.9813084 16.1495327 51.8411215 16.0654206 51.7009346 16.0373832 51.5046729 16.0373832 51.2803738 16.0373832 51.0560748 16.0654206 50.8878505 16.1495327 50.7476636 16.2336449 50.6074766 16.3457944 50.4672897 16.4859813 50.3831776 16.6261682 50.2990654 16.7943925 50.2149533 16.9906542 50.1869159 17.1869159 50.1588785 17.3831776 50.1308411 17.5794393 50.1308411 17.6635514 50.1308411 17.7757009 50.1308411 17.8878505 50.1588785 18 50.1588785 18.1121495 50.1869159 18.2242991 50.2149533L18.2242991 50.0747664C18.2242991 49.9626168 18.2242991 49.8785047 18.1962617 49.7943925 18.1682243 49.7102804 18.1401869 49.6261682 18.0560748 49.5420561 17.9719626 49.4579439 17.9158879 49.4299065 17.8317757 49.3738318 17.7196262 49.3457944 17.6074766 49.317757 17.4672897 49.317757 17.271028 49.317757 17.0747664 49.3457944 16.9065421 49.3738318 16.7383178 49.4018692 16.5981308 49.4299065 16.4859813 49.4859813L16.3738318 48.7850467C16.4859813 48.7570093 16.6542056 48.7009346 16.8504673 48.6728972 17.0747664 48.5327103 17.2990654 48.5046729 17.5514019 48.5046729zM17.635514 51.7570093C17.9158879 51.7570093 18.1121495 51.728972 18.2523364 51.7009346L18.2523364 50.7476636C18.1962617 50.7196262 18.1401869 50.7196262 18.0560748 50.6915888 17.9719626 50.6635514 17.8598131 50.6635514 17.7476636 50.6635514 17.6635514 50.6635514 17.5514019 50.6635514 17.4672897 50.6915888 17.3551402 50.7196262 17.271028 50.7196262 17.1869159 50.7757009 17.1028037 50.8037383 17.046729 50.8598131 16.9906542 50.9439252 16.9345794 51 16.9065421 51.1121495 16.9065421 51.1962617 16.9065421 51.3925234 16.9626168 51.5327103 17.1028037 51.6168224 17.2149533 51.728972 17.411215 51.7570093 17.635514 51.7570093zM21.7570093 49.4018692C21.6728972 49.3738318 21.588785 49.3457944 21.4485981 49.317757 21.3084112 49.2897196 21.1682243 49.2897196 21 49.2897196 20.9158879 49.2897196 20.8037383 49.2897196 20.6915888 49.317757 20.5794393 49.3457944 20.4953271 49.3457944 20.4672897 49.3738318L20.4672897 52.3738318 19.6261682 52.3738318 19.6261682 48.7850467C19.7943925 48.728972 19.9906542 48.6728972 20.2429907 48.6168224 20.4953271 48.5607477 20.7757009 48.5327103 21.0841121 48.5327103 21.1401869 48.5327103 21.1962617 48.5327103 21.2803738 48.5327103 21.364486 48.5327103 21.4205607 48.5607477 21.5046729 48.5607477 21.588785 48.5607477 21.6448598 48.588785 21.728972 48.6168224 21.8130841 48.6448598 21.8691589 48.6448598 21.8971963 48.6728972L21.7570093 49.4018692zM22.2897196 47.6074766L23.1588785 47.4672897 23.1588785 48.588785 24.5046729 48.588785 24.5046729 49.317757 23.1588785 49.317757 23.1588785 50.8598131C23.1588785 51.1682243 23.2149533 51.364486 23.2990654 51.5046729 23.3831776 51.6448598 23.5514019 51.7009346 23.7757009 51.7009346 23.9439252 51.7009346 24.0841121 51.6728972 24.1962617 51.6448598 24.3084112 51.6168224 24.4205607 51.588785 24.4766355 51.5607477L24.6168224 52.2616822C24.5046729 52.317757 24.3925234 52.3457944 24.2242991 52.4018692 24.0560748 52.4579439 23.8598131 52.4579439 23.6635514 52.4579439 23.3831776 52.4579439 23.1588785 52.4299065 22.9906542 52.3457944 22.8224299 52.2616822 22.6542056 52.1775701 22.5700935 52.0373832 22.4579439 51.8971963 22.4018692 51.728972 22.3457944 51.5327103 22.2897196 51.3364486 22.2897196 51.1121495 22.2897196 50.8598131L22.2897196 47.6074766zM30.1121495 50.4953271C30.1121495 50.8037383 30.0560748 51.0560748 29.9719626 51.3084112 29.8878505 51.5607477 29.7757009 51.7570093 29.6074766 51.9252336 29.4392523 52.0934579 29.271028 52.2336449 29.046729 52.317757 28.8224299 52.4018692 28.5700935 52.4579439 28.317757 52.4579439 28.0654206 52.4579439 27.8130841 52.4018692 27.588785 52.317757 27.364486 52.2336449 27.1682243 52.0934579 27.0280374 51.9252336 26.8598131 51.7570093 26.7476636 51.5327103 26.6635514 51.3084112 26.5794393 51.0560748 26.5233645 50.8037383 26.5233645 50.4953271 26.5233645 50.1869159 26.5794393 49.9345794 26.6635514 49.682243 26.7476636 49.4299065 26.8878505 49.2336449 27.0280374 49.0654206 27.1962617 48.8971963 27.3925234 48.7570093 27.588785 48.6728972 27.8130841 48.588785 28.0373832 48.5327103 28.317757 48.5327103 28.5700935 48.5327103 28.8224299 48.588785 29.046729 48.6728972 29.271028 48.7570093 29.4672897 48.8971963 29.6074766 49.0654206 29.7757009 49.2336449 29.8878505 49.4579439 29.9719626 49.682243 30.0841121 49.9065421 30.1121495 50.1869159 30.1121495 50.4953271zM29.2149533 50.4953271C29.2149533 50.1308411 29.1308411 49.8224299 28.9626168 49.5981308 28.7943925 49.3738318 28.5700935 49.2616822 28.2897196 49.2616822 28.0093458 49.2616822 27.7850467 49.3738318 27.6168224 49.5981308 27.4485981 49.8224299 27.364486 50.1028037 27.364486 50.4953271 27.364486 50.8878505 27.4485981 51.1682243 27.6168224 51.3925234 27.7850467 51.6168224 28.0093458 51.728972 28.2897196 51.728972 28.5700935 51.728972 28.7943925 51.6168224 28.9626168 51.3925234 29.1308411 51.1682243 29.2149533 50.8598131 29.2149533 50.4953271zM32.1028037 46.7943925C32.2990654 46.7943925 32.4672897 46.8224299 32.635514 46.8504673 32.7757009 46.8785047 32.9158879 46.9065421 32.9719626 46.9345794L32.8037383 47.6635514C32.7196262 47.635514 32.635514 47.6074766 32.5233645 47.5794393 32.411215 47.5514019 32.2990654 47.5514019 32.1869159 47.5514019 32.046729 47.5514019 31.9345794 47.5794393 31.8224299 47.6074766 31.7102804 47.635514 31.6542056 47.6915888 31.5981308 47.7757009 31.5420561 47.8598131 31.5140187 47.9439252 31.4859813 48.0280374 31.4579439 48.1401869 31.4579439 48.2523364 31.4579439 48.364486L31.4579439 48.6168224 32.8317757 48.6168224 32.8317757 49.3457944 31.4579439 49.3457944 31.4579439 52.3738318 30.5607477 52.3738318 30.5607477 48.3364486C30.5607477 47.8598131 30.7009346 47.4672897 30.953271 47.1869159 31.2056075 46.9345794 31.5981308 46.7943925 32.1028037 46.7943925z"/>
    <path id="Shape" fill="#0070AD" fill-rule="nonzero" d="M61.0934579,10.6542056 C59.4953271,10.3738318 57.8130841,10.2336449 56.046729,10.2336449 C54.2242991,10.2336449 52.5700935,10.5420561 51.1401869,11.1308411 C49.7102804,11.7196262 48.4766355,12.5607477 47.4672897,13.6261682 C46.4579439,14.6915888 45.7009346,15.9813084 45.1682243,17.4672897 C44.635514,18.9813084 44.3831776,20.6074766 44.3831776,22.4018692 C44.3831776,24.3084112 44.635514,25.9906542 45.1401869,27.4485981 C45.6448598,28.9065421 46.317757,30.1121495 47.2149533,31.0934579 C48.1121495,32.0747664 49.1775701,32.8037383 50.411215,33.3084112 C51.6448598,33.8130841 53.0186916,34.0654206 54.5327103,34.0654206 C55.682243,34.0654206 56.6915888,33.9252336 57.5607477,33.6448598 C58.317757,33.3925234 58.9626168,33.1682243 59.4672897,32.9158879 C59.4672897,35.2990654 58.4579439,37.2056075 55.2897196,37.9906542 C54,38.2990654 52.2616822,38.2149533 49.9345794,37.5700935 C49.2897196,38.7476636 48.9252336,40.7943925 49.9065421,42 C50.7757009,43.0373832 52.9065421,43.2336449 54.2523364,43.2336449 C57.2803738,43.2336449 60.5607477,41.9439252 62.1028037,40.5140187 C64.1214953,38.6635514 65.1308411,35.7757009 65.1308411,31.8224299 L65.1308411,11.5794393 C64.0373832,11.2429907 62.6635514,10.9345794 61.0934579,10.6542056 Z M59.4672897,28.0654206 C58.9906542,28.4018692 58.4018692,28.7102804 57.6448598,28.9626168 C56.8878505,29.2149533 56.1028037,29.3271028 55.2336449,29.3271028 C53.6915888,29.3271028 52.4018692,28.7663551 51.4205607,27.6728972 C50.4392523,26.5514019 49.9345794,24.8130841 49.9345794,22.4018692 C49.9345794,20.1869159 50.4392523,18.3925234 51.4766355,17.0186916 C52.5140187,15.6448598 53.9719626,14.9719626 55.9065421,14.9719626 C56.7476636,14.9719626 57.4485981,15 58.0093458,15.0841121 C58.5700935,15.1682243 59.046729,15.2523364 59.411215,15.3364486 L59.411215,28.0654206 L59.4672897,28.0654206 Z"/>
  </g>
</svg>
